<svg xmlns="http://www.w3.org/2000/svg" viewBox="0 0 1200 760">
<defs><linearGradient id="sky" x1="0" y1="0" x2="0" y2="1"><stop stop-color="#c9d7d8"/><stop offset="1" stop-color="#f4eee6"/></linearGradient><linearGradient id="wall" x1="0" y1="0" x2="1" y2="1"><stop stop-color="#ded5c9"/><stop offset="1" stop-color="#b9a998"/></linearGradient></defs>
<rect width="1200" height="760" fill="url(#sky)"/><circle cx="930" cy="130" r="68" fill="#f6dfb1" opacity=".72"/>
<rect y="555" width="1200" height="205" fill="#879174"/><path d="M0 620 Q210 555 420 605 T840 588 T1200 610 V760H0Z" fill="#6f7a5f"/>
<rect x="210" y="300" width="650" height="290" rx="3" fill="url(#wall)"/><path d="M150 310 L540 115 L925 310Z" fill="#3a4038"/><path d="M195 312 L540 145 L882 312Z" fill="#494e45"/>
<rect x="275" y="365" width="185" height="225" fill="#4e5c5c"/><rect x="495" y="365" width="185" height="225" fill="#344041"/><rect x="715" y="382" width="95" height="208" fill="#6a7471"/>
<rect x="302" y="395" width="130" height="168" fill="#b9c8c7"/><rect x="522" y="395" width="130" height="168" fill="#7f9698"/>
<rect x="470" y="520" width="70" height="70" fill="#8a6a4f"/>
<path d="M170 600 H900" stroke="#4a5244" stroke-width="9" opacity=".55"/>
</svg>
